<?xml version="1.0" encoding="iso-8859-1"?>
<!-- Generator: Adobe Illustrator 17.1.0, SVG Export Plug-In . SVG Version: 6.00 Build 0)  -->
<!DOCTYPE svg PUBLIC "-//W3C//DTD SVG 1.1//EN" "http://www.w3.org/Graphics/SVG/1.1/DTD/svg11.dtd">
<svg version="1.1" id="Capa_1" xmlns="http://www.w3.org/2000/svg" xmlns:xlink="http://www.w3.org/1999/xlink" x="0px" y="0px"
	 viewBox="0 0 212.093 212.093" style="enable-background:new 0 0 212.093 212.093;" xml:space="preserve">
<path style="fill:#cd7f32;" d="M116.714,144.156l15.434,2.242l-11.168,10.887c-1.178,1.148-1.716,2.804-1.438,4.425l2.637,15.372l-13.805-7.258
	c-1.456-0.766-3.197-0.766-4.653,0l-13.805,7.258l2.637-15.372c0.278-1.621-0.26-3.276-1.438-4.425l-11.169-10.887l15.434-2.242
	c1.629-0.237,3.037-1.26,3.765-2.735l6.902-13.986l6.902,13.986C113.677,142.896,115.085,143.919,116.714,144.156z M106.047,98.016
	c31.451,0,57.039,25.588,57.039,57.039s-25.588,57.038-57.039,57.038c-31.452,0-57.039-25.587-57.039-57.038
	S74.595,98.016,106.047,98.016z M106.047,111.137c-1.903,0-3.642,1.081-4.484,2.787L91.34,134.638l-22.858,3.321
	c-1.884,0.273-3.448,1.593-4.037,3.403c-0.588,1.81-0.098,3.797,1.265,5.125l16.541,16.123l-3.905,22.768
	c-0.322,1.875,0.45,3.771,1.989,4.89c1.54,1.118,3.582,1.267,5.266,0.381l20.446-10.749l20.445,10.749
	c0.731,0.385,1.53,0.574,2.326,0.574c1.037,0,2.068-0.322,2.939-0.955c1.54-1.118,2.311-3.015,1.989-4.89l-3.905-22.767
	l16.541-16.124c1.363-1.328,1.853-3.315,1.265-5.125c-0.588-1.811-2.153-3.13-4.037-3.403l-22.859-3.321l-10.222-20.714
	C109.688,112.217,107.95,111.137,106.047,111.137z M66.37,81.738l15.574,10.777c7.485-2.895,15.608-4.499,24.103-4.499
	c8.494,0,16.617,1.605,24.102,4.499l15.574-10.777c1.35-0.934,2.155-2.47,2.155-4.111V5c0-2.762-2.239-5-5-5H69.215
	c-2.761,0-5,2.238-5,5v72.627C64.215,79.269,65.02,80.805,66.37,81.738z"/>
<g>
</g>
<g>
</g>
<g>
</g>
<g>
</g>
<g>
</g>
<g>
</g>
<g>
</g>
<g>
</g>
<g>
</g>
<g>
</g>
<g>
</g>
<g>
</g>
<g>
</g>
<g>
</g>
<g>
</g>
</svg>
