<?xml version="1.0" encoding="iso-8859-1"?>
<!-- Generator: Adobe Illustrator 18.1.1, SVG Export Plug-In . SVG Version: 6.00 Build 0)  -->
<svg version="1.1" id="Capa_1" xmlns="http://www.w3.org/2000/svg" xmlns:xlink="http://www.w3.org/1999/xlink" x="0px" y="0px"
	 viewBox="0 0 373.437 373.437" style="enable-background:new 0 0 373.437 373.437;" xml:space="preserve">
<g>
	<g id="Layer_5_52_">
		<g>
			<g>
				<path style="fill:silver;" d="M159.969,103.299c5.276,5.275,5.276,13.908,0,19.184l-24.665,24.665c-5.276,5.275-13.908,5.275-19.184,0L16.777,47.804
					c-5.275-5.275-5.275-13.908,0-19.184L41.441,3.956c5.276-5.275,13.908-5.275,19.184,0L159.969,103.299z"/>
			</g>
			<path style="fill:silver;" d="M185.599,184.142c-52.272,0-94.647,42.376-94.647,94.648s42.375,94.647,94.647,94.647s94.647-42.374,94.647-94.647
				C280.246,226.518,237.871,184.142,185.599,184.142z M233.485,268.294l-13.581,9.868c-6.374,4.63-9.596,14.548-7.163,22.041
				l5.188,15.965c2.434,7.493-0.789,9.834-7.162,5.203l-13.581-9.867c-6.374-4.63-16.803-4.63-23.176,0l-13.581,9.867
				c-6.373,4.631-9.596,2.29-7.162-5.203l5.188-15.965c2.434-7.493-0.789-17.411-7.162-22.041l-13.581-9.868
				c-6.373-4.63-5.142-8.419,2.735-8.419h16.788c7.877,0,16.315-6.13,18.749-13.622l5.187-15.965c2.435-7.492,6.418-7.492,8.853,0
				l5.187,15.965c2.434,7.492,10.872,13.622,18.749,13.622h16.788C238.627,259.875,239.858,263.664,233.485,268.294z"/>
			<path style="fill:silver;" d="M356.671,29.037L332.007,4.373c-5.276-5.276-13.924-5.291-19.219-0.035l-150.32,149.234c0,0-12.083,11.495,5.42,6.562
				c7.047-1.986,14.548-2.621,22.192-2.621c14.719,0,26.815,2.501,39.239,8.495c1.322,0.638,5.118,2.854,10.788-2.136
				L356.635,48.186C361.93,42.929,361.946,34.313,356.671,29.037z"/>
		</g>
	</g>
</g>
<g>
</g>
<g>
</g>
<g>
</g>
<g>
</g>
<g>
</g>
<g>
</g>
<g>
</g>
<g>
</g>
<g>
</g>
<g>
</g>
<g>
</g>
<g>
</g>
<g>
</g>
<g>
</g>
<g>
</g>
</svg>
